<?xml version="1.0" standalone="no"?>
<!DOCTYPE svg PUBLIC "-//W3C//DTD SVG 1.1//EN" "http://www.w3.org/Graphics/SVG/1.1/DTD/svg11.dtd" >
<svg xmlns="http://www.w3.org/2000/svg">
<metadata></metadata>
<defs>
<font id="avazaregular" horiz-adv-x="1157" >
<font-face units-per-em="2048" ascent="1638" descent="-410" />
<missing-glyph horiz-adv-x="578" />
<glyph horiz-adv-x="0" />
<glyph unicode="&#xd;" horiz-adv-x="0" />
<glyph unicode=" "  horiz-adv-x="578" />
<glyph unicode="&#x09;" horiz-adv-x="578" />
<glyph unicode="&#xa0;" horiz-adv-x="578" />
<glyph unicode="!" horiz-adv-x="588" d="M223 0v266h142v-266h-142zM223 379v1077h142v-1077h-142z" />
<glyph unicode="&#x22;" horiz-adv-x="569" d="M98 881v553h101v-553h-101zM371 881v553h102v-553h-102z" />
<glyph unicode="#" horiz-adv-x="1843" d="M115 0v1456h188l799 -1282v1282h141v-1456h-188l-799 1284v-1284h-141zM1315 483v113h469v-113h-469zM1325 936q0 88 64 151q61 64 151 64t154 -64q61 -63 61 -151q0 -92 -61 -154q-64 -61 -154 -61t-151 61q-64 62 -64 154zM1401 936q0 -57 41 -96q39 -41 96 -41t96 41 q41 39 41 96q0 55 -41 94q-39 41 -96 41t-96 -41q-41 -39 -41 -94z" />
<glyph unicode="$" d="M152 432h139v-16q0 -142 74 -213q71 -74 210 -74q134 0 209 74q78 71 78 194q0 195 -309 297q-21 6 -31 11q-190 63 -262 143q-72 82 -72 219q0 145 91 254q90 104 229 123v213h143v-213q148 -17 232 -113q84 -94 92 -252h-144v4q0 111 -65 177q-68 65 -178 65 q-119 0 -189 -68q-69 -67 -69 -182q0 -160 284 -258q60 -18 91 -31q163 -61 233 -145t70 -221q0 -172 -99 -287q-98 -115 -258 -129v-246h-143v246q-160 16 -258 135q-98 117 -98 293z" />
<glyph unicode="%" horiz-adv-x="1796" d="M90 1126q0 150 105 254q104 105 254 105q149 0 256 -105q104 -104 104 -254q0 -149 -104 -254q-107 -104 -256 -104q-150 0 -254 104q-105 105 -105 254zM219 1124q0 -94 68 -159q65 -68 159 -68q95 0 160 66q66 65 66 161q0 95 -66 160q-65 66 -160 66q-96 0 -161 -66 q-66 -65 -66 -160zM451 -29l778 1514h117l-779 -1514h-116zM987 330q0 149 104.5 253.5t254.5 104.5q149 0 253 -104q105 -105 105 -254q0 -152 -105 -254q-104 -105 -253 -105q-152 0 -254 105q-105 102 -105 254zM1114 330q0 -94 68 -160q65 -68 159 -68q95 0 162 68 q66 66 66 160t-66 159q-67 66 -162 66q-96 0 -161 -66q-66 -65 -66 -159z" />
<glyph unicode="&#x26;" horiz-adv-x="1421" d="M129 410q0 131 76 243q74 115 201 172q-97 86 -132 156q-36 68 -36 160q0 141 104 241q100 101 252 101q135 0 235 -103q101 -102 101 -239q0 -111 -72 -203q-72 -90 -207 -150l295 -272l172 453h156l-219 -555l325 -299l-90 -107l-297 268q-67 -147 -182 -227 q-113 -78 -258 -78q-174 0 -299 127q-125 129 -125 312zM281 410q0 -131 78.5 -213t201.5 -82q94 0 174 61q80 64 154 195l-387 360q-109 -53 -164 -135q-57 -84 -57 -186zM387 1139q0 -68 37 -123q37 -58 131 -133q113 45 170 110q55 66 55 154q0 86 -55 143 q-57 60 -137 60q-88 0 -146 -58q-55 -57 -55 -153z" />
<glyph unicode="'" horiz-adv-x="295" d="M98 881v553h101v-553h-101z" />
<glyph unicode="(" horiz-adv-x="541" d="M125 168v706q0 226 76 377q75 152 231 234v-162q-90 -72 -129 -170q-37 -100 -37 -303v-657q0 -203 37 -304q39 -98 129 -170v-161q-156 82 -231 233q-76 152 -76 377z" />
<glyph unicode=")" horiz-adv-x="541" d="M109 -281q90 72 129 170q36 101 36 304v657q0 203 -36 303q-39 98 -129 170v162q155 -82 231 -234q76 -151 76 -377v-706q0 -225 -76 -377q-76 -151 -231 -233v161z" />
<glyph unicode="*" horiz-adv-x="1024" d="M125 1128l37 119l291 -96v305h114v-305l289 96l41 -119l-301 -86l205 -251l-105 -74l-186 264l-182 -264l-107 74l201 251z" />
<glyph unicode="+" horiz-adv-x="1706" d="M254 561v98h551v562h98v-562h549v-98h-549v-561h-98v561h-551z" />
<glyph unicode="," horiz-adv-x="578" d="M104 -162l156 428h143l-155 -428h-144z" />
<glyph unicode="-" horiz-adv-x="659" d="M94 483v133h469v-133h-469z" />
<glyph unicode="." horiz-adv-x="578" d="M217 0v266h143v-266h-143z" />
<glyph unicode="/" horiz-adv-x="569" d="M-49 -190l498 1646h120l-497 -1646h-121z" />
<glyph unicode="0" d="M86 512v432q0 141 20 213q21 72 66 133q72 94 176 146q105 51 230 51q229 0 360 -141q133 -144 133 -394v-446q0 -119 -18 -195q-21 -78 -62 -137q-69 -96 -178 -149q-106 -54 -235 -54q-125 0 -230 52q-102 49 -178 145q-43 55 -64 137q-20 80 -20 207zM227 481 q0 -182 92 -282q95 -101 259 -101q163 0 258 101q92 100 92 278v502q0 178 -92 278q-95 101 -258 101q-164 0 -259 -101q-92 -102 -92 -284v-492z" />
<glyph unicode="1" d="M270 1331v125h406v-1456h-152v1331h-254z" />
<glyph unicode="2" d="M133 0v141l516 490q154 145 203 229t49 174q0 137 -90 230q-88 92 -227 92q-142 0 -228 -94q-84 -95 -84 -252v-21q2 -12 2 -20h-141v22q0 219 129 359q129 137 334 137q184 0 315 -133q129 -133 129 -330q0 -113 -55 -215q-53 -104 -172 -215l-491 -453h714v-141h-903z " />
<glyph unicode="3" d="M109 442h145v-12q0 -143 90 -240q88 -94 221 -94q144 0 236 94q92 95 92 242q0 166 -98 254q-99 86 -287 86h-41q-14 -2 -27 -2v121h25q12 -2 39 -2q143 0 217 59q72 60 72 178q0 103 -62 168q-61 66 -156 66q-106 0 -167.5 -64.5t-63.5 -181.5h-133q8 170 108 270 q101 101 263 101q149 0 254 -107q104 -106 104 -252q0 -88 -33 -151q-35 -66 -108 -119q119 -63 180 -166q59 -102 59 -244q0 -200 -133 -337.5t-332 -137.5q-213 0 -337 125q-123 127 -127 346z" />
<glyph unicode="4" d="M88 281v127l660 1048h163v-1048h158v-127h-158v-281h-141v281h-682zM238 408h536l6 880z" />
<glyph unicode="5" d="M84 442h145q9 -143 111 -241.5t240 -98.5q147 0 248.5 111t101.5 272q0 164 -101 267q-102 100 -266 100q-94 0 -168 -41q-76 -43 -133 -127l-110 51l129 721h657v-143h-535l-73 -406q63 45 124.5 65.5t133.5 20.5q213 0 350 -143q135 -145 135 -369q0 -213 -145 -360 q-146 -150 -353 -150q-196 0 -335.5 132.5t-155.5 338.5z" />
<glyph unicode="6" d="M84 451q0 174 180 452q19 27 27 41l330 512h178l-340 -526q47 10 86 16t71 6q197 0 328 -139q129 -137 129 -346q0 -213 -141 -354.5t-357 -141.5q-213 0 -352 140q-139 137 -139 340zM233 465q0 -154 105 -260q102 -107 250 -107q143 0 239 103q97 102 97 262 q0 158 -95.5 260t-242.5 102q-150 0 -250 -104q-103 -105 -103 -256z" />
<glyph unicode="7" d="M205 1313v143h803v-131l-582 -1325h-160l576 1313h-637z" />
<glyph unicode="8" d="M113 434q0 125 53 213q49 90 168 166q-78 51 -117 125q-39 72 -39 162q0 155 117 270t280 115q170 0 287 -111q117 -110 117 -264q0 -100 -39 -172q-41 -74 -123 -125q115 -65 170 -156q57 -90 57 -213q0 -206 -133 -340q-133 -133 -342 -133q-190 0 -323 134.5 t-133 328.5zM258 418q0 -139 90 -230.5t221 -91.5q144 0 236 92q92 95 92 236q0 145 -86 235q-88 89 -231 89q-150 0 -236 -89q-86 -88 -86 -241zM322 1122q0 -108 69 -176q68 -67 178 -67q131 0 201 61t70 178q0 105 -72 172q-74 66 -186 66q-111 0 -185 -68 q-75 -65 -75 -166z" />
<glyph unicode="9" d="M84 991q0 215 139 357q142 139 357 139q213 0 354 -137q139 -140 139 -342q0 -174 -180 -453q-16 -27 -27 -41l-329 -514h-179l340 528q-47 -12 -86 -16q-39 -6 -71 -6q-199 0 -328 137q-129 139 -129 348zM233 995q0 -157 97 -260q94 -102 241 -102q150 0 252 104 q101 105 101 256q0 154 -103.5 259.5t-251.5 105.5q-143 0 -239 -103q-97 -102 -97 -260z" />
<glyph unicode=":" horiz-adv-x="588" d="M223 0v266h142v-266h-142zM223 834v266h142v-266h-142z" />
<glyph unicode=";" horiz-adv-x="588" d="M104 -162l156 428h143l-155 -428h-144zM223 834v266h142v-266h-142z" />
<glyph unicode="&#x3c;" horiz-adv-x="1706" d="M264 569v82l1178 484v-109l-1022 -416l1022 -413v-109z" />
<glyph unicode="=" horiz-adv-x="1706" d="M254 375v98h1198v-98h-1198zM254 748v98h1198v-98h-1198z" />
<glyph unicode="&#x3e;" horiz-adv-x="1706" d="M264 88v109l1022 413l-1022 416v109l1178 -484v-82z" />
<glyph unicode="?" horiz-adv-x="948" d="M45 1012q2 215 123 344q119 129 313 129q181 0 295 -119q113 -121 113 -311q0 -187 -166 -334q-16 -14 -25 -23q-82 -75 -116 -143q-33 -70 -35 -158h-144q0 95 39 183q39 90 115 172l53 53q127 119 127 252q0 131 -69 205q-72 73 -195 73q-131 0 -203 -84 q-71 -82 -77 -239h-148zM403 0v266h144v-266h-144z" />
<glyph unicode="@" horiz-adv-x="2048" d="M117 537q0 204 86 383q86 176 252 313q133 108 299 166q166 55 360 55q162 0 307 -45q148 -43 250 -123q129 -98 194.5 -227t65.5 -281q0 -172 -61 -309q-64 -139 -182 -233q-70 -54 -150 -82q-78 -29 -160 -29q-98 0 -143 39q-49 37 -49 112q0 5 2 15v14 q-51 -88 -127 -133q-76 -47 -168 -47q-154 0 -234 84q-79 84 -79 244q0 229 135 389q135 157 329 157q95 0 158 -41q64 -40 96 -122l60 125h94l-139 -562q-10 -45 -13 -61q-4 -21 -4 -31q0 -43 29 -67.5t78 -24.5q51 0 106 21q56 20 105 61q96 78 150.5 205t54.5 282 q0 254 -197 416q-199 164 -510 164q-174 0 -319.5 -49t-262.5 -150q-147 -127 -223 -291q-74 -163 -74 -362q0 -174 59.5 -305t184.5 -232q103 -81 244 -129q141 -45 301 -45q172 0 336 49q162 50 299 144l39 -55q-148 -111 -312 -166q-163 -56 -342 -56q-190 0 -348 47 q-155 46 -274 138q-156 118 -230 274q-73 156 -73 361zM702 444q0 -110 56 -174q53 -61 151 -61q107 0 191 72q82 71 110 188l62 248q-19 94 -76 145q-57 53 -139 53q-154 0 -254 -133q-101 -135 -101 -338z" />
<glyph unicode="C" horiz-adv-x="983" d="M109 0l2 1071q0 176 100 279q98 106 262 106q118 0 205 -45q93 -49 131 -127q25 -52 25 -149q0 -105 -69.5 -176.5t-166 -112.5t-183.5 -61t-155 -35v-121q115 106 262 106q100 0 189 -43q37 -17 77 -56t60 -81q36 -76 39 -184v-27q0 -87 -13 -163t-40 -113 q-64 -88 -156 -99l2 135q37 22 55 62q16 35 16 106v36q-1 11 -1 24q-3 110 -35 178q-23 47 -75.5 72t-124.5 25q-56 0 -108.5 -25.5t-82.5 -69.5q-66 -99 -66 -283l-2 -229h-147zM254 889q50 3 152 29t189 81q37 24 57.5 67t20.5 94q0 18 -3 38q-4 26 -23 50.5t-45 39.5 q-42 25 -121 25q-94 0 -157 -68q-70 -70 -70 -174v-182z" />
<glyph unicode="E" horiz-adv-x="0" />
<glyph unicode="H" horiz-adv-x="848" d="M-31 0l373 571l-328 529h158l256 -416l274 416h162l-356 -527l354 -573h-160l-282 459l-295 -459h-156z" />
<glyph unicode="I" horiz-adv-x="371" d="M115 0v1456h141v-1456h-141z" />
<glyph unicode="J" horiz-adv-x="932" d="M76 -178h143q6 -108 69.5 -174.5t157.5 -66.5q134 0 189 86q55 82 55 336v784l-194 -285q60 -36 79 -73q19 -39 19 -91q0 -42 -23 -95q-19 -46 -57 -81q-77 -69 -188 -69q-114 0 -183 75q-64 65 -67 205h114q0 -72 41 -127q37 -41 99 -41q51 0 96 29q39 25 39 96 q0 62 -29 92q-40 42 -121 62l301 436h218v-977q0 -129 -15 -201q-17 -79 -45 -124q-59 -93 -137 -134q-90 -47 -199 -47q-164 0 -262 107q-100 104 -100 278z" />
<glyph unicode="O" horiz-adv-x="0" />
<glyph unicode="P" horiz-adv-x="1907" d="M137 451q0 495 291 790q91 94 248 156q59 24 150.5 39.5t172.5 15.5q68 0 146 -11.5t150 -35t126 -55.5q146 -88 246 -252h-184q-88 100 -189 153q-53 29 -138 45.5t-165 16.5q-86 0 -171.5 -21t-164 -63t-133.5 -99q-135 -138 -182 -294q99 71 217 71q138 0 223 -37 q131 -52 183 -151q55 99 184 151q95 41 219 41q223 0 326 -135q98 -127 98 -325q-1 -147 -44 -241t-107 -139.5t-150 -70.5v137q78 45 119 107q41 70 47 207q0 148 -68 233q-71 92 -235 92q-99 0 -164 -39q-70 -43 -102 -92.5t-42 -122t-10 -198.5h-141q0 126 -10 199 t-42.5 122.5t-101.5 91.5q-65 39 -164 39q-163 0 -235 -92q-68 -85 -68 -233q7 -138 47 -207q41 -62 119 -107v-137q-64 19 -113.5 47t-92 78.5t-67.5 130t-28 195.5z" />
<glyph unicode="Q" horiz-adv-x="0" />
<glyph unicode="R" horiz-adv-x="1823" d="M85 380q0 180 14 227q34 113 81 170q56 67 136 101t190 34q123 0 219 -41q130 -54 182 -152q54 98 185 152q95 41 219 41q223 0 325 -135q99 -127 99 -326q-1 -114 -26.5 -195t-67.5 -131t-92.5 -78t-114.5 -47v138q78 43 118 106q41 68 47 207q0 148 -67 234 q-72 92 -236 92q-95 0 -163 -39q-69 -42 -101.5 -91.5t-42.5 -123t-10 -199.5v-184h-141v184q0 126 -10 199t-42 122.5t-102 92.5q-67 39 -164 39q-146 0 -229 -97q-30 -35 -42.5 -79.5t-15.5 -120.5q-1 -36 -1 -96q0 -42 1 -78v-103q0 -267 173 -446q59 -61 126 -100.5 t143 -59t159 -20.5h30h34q21 -1 39 -1q116 0 173 16q100 27 141 81q29 37 39 74h148q-24 -96 -65.5 -155t-110 -92t-169 -46t-272.5 -15q-315 0 -526 219q-105 109 -157 246.5t-52 300.5v85q-1 40 -1 90z" />
<glyph unicode="S" horiz-adv-x="1116" d="M102 1307v133h72q122 0 203 -103q33 -43 53 -94q21 51 53 94q78 105 203 105q69 -2 133 -41q93 -58 148 -154q51 -94 51 -209v-600q0 -188 -133 -327q-131 -136 -322 -136q-188 0 -321 140q-131 139 -131 336q0 186 135 323q133 133 325 133q162 0 308 -139v264 q0 129 -78 213q-58 62 -119 62q-64 0 -113 -66q-64 -85 -69 -172h-144q-5 92 -65 172q-17 25 -49 45q-34 21 -64 21h-76zM244 434q0 -145 92 -244q90 -96 225 -96q137 0 227 96q95 99 95 242q0 148 -95 244q-90 98 -217 98q-141 0 -235 -94q-92 -98 -92 -246z" />
<glyph unicode="T" horiz-adv-x="1823" d="M94 449q0 184 135 324q66 66 146.5 99.5t179.5 33.5q75 -2 139 -21t117.5 -60.5t103.5 -117.5q61 109 191 164q96 41 219 41q107 0 190.5 -38t126.5 -97q78 -103 78 -322q0 -88 -8.5 -135t-32.5 -107q-41 -106 -118 -165q-70 -55 -162 -81v137q78 45 119 107 q49 75 49 135q1 13 2 29v97q0 140 -41 208q-58 97 -217 97q-100 0 -164 -39q-52 -32 -84.5 -71t-48.5 -96q-13 -49 -13 -133q0 -192 -133 -327q-131 -138 -321 -138q-189 0 -322 140q-131 137 -131 336zM227 432q0 -144 91.5 -242t226.5 -98q137 0 227 98q94 103 94 240 q0 151 -94 244q-103 101 -217 101q-141 0 -236 -97q-92 -98 -92 -246z" />
<glyph unicode="V" horiz-adv-x="1139" d="M-41 1456h143l461 -1241l463 1241h143l-548 -1456h-113z" />
<glyph unicode="W" horiz-adv-x="1126" d="M164 -192l137 -2q6 -106 70 -170q60 -63 157 -63q140 0 230 90q47 47 64.5 109.5t21.5 137.5q1 12 1 34q0 134 -54 218q-52 82 -199 82v379q-29 -22 -62 -37q-44 -21 -98 -22q-127 0 -203 90q-65 78 -65 182q0 114 90 193q70 61 168 61q94 0 170 -67v433h139v-562 l211 210v-145l-173 -173l159 -218v-159l-197 259v-299q64 -6 115.5 -39t79.5 -80q24 -38 44.5 -112t20.5 -166q-2 -89 -16.5 -161.5t-43.5 -131t-75 -104.5q-64 -64 -149 -96.5t-181 -32.5q-86 0 -149.5 20.5t-110.5 71.5q-52 55 -77 119.5t-25 150.5zM266 834 q4 -69 35 -106q45 -50 123 -50q47 0 88 23q32 17 80 63v95q-23 44 -51 69q-51 48 -115 52q-60 0 -107 -37q-22 -17 -37.5 -48.5t-15.5 -60.5z" />
<glyph unicode="X" horiz-adv-x="1165" d="M-6 0l506 733l-494 723h178l400 -604l399 604h176l-493 -723l505 -733h-180l-407 618l-414 -618h-176z" />
<glyph unicode="Z" horiz-adv-x="1116" d="M111 451q0 186 135 323q133 133 325 133q174 0 308 -127v676h139v-1018q0 -190 -133 -327q-131 -136 -322 -136q-188 0 -321 140q-131 139 -131 336zM244 434q0 -145 92 -244q90 -96 225 -96q137 0 227 96q95 99 95 242q0 157 -90 248q-87 94 -222 94q-141 0 -235 -94 q-92 -98 -92 -246z" />
<glyph unicode="[" horiz-adv-x="541" d="M133 -410v1866h332v-119h-191v-1630h191v-117h-332z" />
<glyph unicode="\" horiz-adv-x="569" d="M0 1456h119l499 -1646h-120z" />
<glyph unicode="]" horiz-adv-x="541" d="M76 -293h190v1630h-190v119h332v-1866h-332v117z" />
<glyph unicode="^" horiz-adv-x="2048" d="M422 901l532 557h140l530 -557h-143l-457 455l-459 -455h-143z" />
<glyph unicode="_" horiz-adv-x="1024" d="M0 -383h1024v-100h-1024v100z" />
<glyph unicode="`" horiz-adv-x="692" d="M25 -162l153 428h144l-156 -428h-141zM317 -162l156 428h141l-153 -428h-144z" />
<glyph unicode="a" horiz-adv-x="952" d="M57 416h140q5 -138 73 -215q82 -90 193 -90q138 0 213 79q29 31 49 74.5t20 83.5q0 100 -98 158q-23 14 -96.5 42.5t-86.5 34.5q-49 22 -90 54.5t-76.5 98.5t-45.5 174h150q9 -83 43 -134.5t102 -89.5q15 -8 53 -23.5t81.5 -35t79 -41t62.5 -49.5q28 -28 49.5 -82.5 t21.5 -115.5q0 -20 -3 -40q-19 -123 -105 -209q-119 -119 -325 -119q-178 0 -289 123q-111 121 -115 322z" />
<glyph unicode="b" horiz-adv-x="1065" d="M43 438q0 195 133 332q44 45 113 84q63 35 131 47v88q0 118 -33 129q-75 24 -126 52t-93 77q-78 91 -78 228h150q0 -52 20 -97q21 -44 68 -80q16 -12 57 -28t69.5 -25.5t51.5 -17.5q47 -18 60.5 -44.5t13.5 -92.5v-103q0 -53 2 -86q132 -21 233 -127q135 -137 135 -323 q0 -197 -131 -336q-133 -140 -321 -140q-191 0 -322 136q-133 137 -133 327zM178 432q0 -143 94 -242q90 -96 228 -96q135 0 225 96q92 99 92 244q0 148 -92 246q-94 94 -236 94q-132 -6 -217 -98q-94 -96 -94 -244z" />
<glyph unicode="c" d="M86 -20v432q0 141 20 213q21 72 66 133q72 94 176 146v-170q-43 -22 -69 -66q-23 -37 -38 -107q-14 -63 -14 -120v-492q0 -182 92 -282.5t259 -100.5q160 0 262 95q82 77 82 186q0 154 -82 239q-89 89 -230 89v124q111 0 189 68q69 62 69 178q0 105 -71 172 q-77 68 -193 68v127q178 0 289 -105q115 -108 115 -270q0 -100 -39 -172q-41 -74 -123 -125q115 -65 170 -156q49 -81 49 -235q-1 -62 -25.5 -121t-46.5 -90q-68 -94 -178 -147q-103 -52 -237 -52q-125 0 -230 52q-114 55 -176 133q-41 52 -66 149q-20 80 -20 207z" />
<glyph unicode="d" horiz-adv-x="1823" d="M82 202q0 310 17 402q20 96 81 170q56 67 136 101t190 34q123 0 219 -41q132 -55 190 -160q21 31 48 57q71 68 147.5 103t165.5 35q192 0 326 -133q135 -138 135 -324q0 -197 -131 -336q-133 -139 -322 -139q-190 0 -321 137q-123 124 -134 328q-6 123 -34 186 q-29 64 -111 113q-67 39 -164 39q-152 0 -229 -97q-27 -36 -40 -109q-17 -92 -18 -157v-211q0 -267 173 -446q174 -180 432 -180h71q25 -1 55 -1q42 0 66 1q105 4 168 38q42 22 64 52q10 13 13.5 23.5t8 25.5t10.5 31h148q-24 -96 -65.5 -155t-110 -92t-168.5 -46 q-33 -4 -72.5 -6t-82.5 -2q-44 -1 -118 -1q-323 0 -530 213q-213 222 -213 547zM965 428q0 -144 94 -240q90 -98 227 -98q135 0 225 98q93 96 93 242q0 147 -93.5 244.5t-234.5 97.5q-127 0 -217 -101q-94 -96 -94 -243z" />
<glyph unicode="e" horiz-adv-x="1014" d="M119 -178h143q6 -108 69.5 -174.5t157.5 -66.5q134 0 189 86q55 82 55 336v348q0 253 -55 336q-55 86 -189 86q-94 0 -157 -68q-64 -65 -70 -174h-143q0 166 104 275q99 107 258 110q121 0 203 -43q80 -42 131 -135q34 -60 48 -153t14 -175v-467q0 -111 -15 -201 q-16 -94 -71 -164t-107 -98q-85 -43 -203 -43q-164 0 -262 107q-100 104 -100 278z" />
<glyph unicode="f" horiz-adv-x="1823" d="M94 448q0 186 135 324q133 133 326 133q182 0 313 -138q27 -26 47 -57q59 105 191 160q96 41 219 41q107 0 190.5 -38t126.5 -97q78 -103 78 -322q0 -80 -20 -188q-8 -44 -44 -86.5t-79 -73.5q79 -25 113 -97t34 -190q-3 -109 -61 -186q-73 -97 -141 -133 q-86 -45 -198 -62q-68 -9 -198 -9q-229 2 -262 4q-114 10 -169 43q-82 50 -115 92q-71 90 -80 175h148q3 -11 11 -29t13 -26.5t15 -21.5t15 -20q22 -27 42.5 -42t61.5 -26q30 -7 119 -9q89 -3 201 -3q127 0 199 14q106 21 178 84q60 53 66 168q0 94 -39 133q-38 38 -107 51 q-38 6 -137 6h-67v117h63q143 0 217 59q70 58 70 273q0 140 -41 208q-58 97 -217 97q-96 0 -164 -39q-56 -34 -86.5 -74.5t-43.5 -96t-16 -128.5q-9 -202 -133 -328q-131 -137 -321 -137q-189 0 -322 139q-131 139 -131 336zM227 432q0 -146 92 -242q91 -98 226 -98 q137 0 227 98q94 96 94 240q0 147 -94 243q-99 101 -217 101q-141 0 -236 -97q-92 -98 -92 -245z" />
<glyph unicode="g" horiz-adv-x="1065" d="M43 -94q0 195 133 332q113 113 238 135q20 53 52.5 83t74.5 50t77 38t48 41q11 19 11 45q0 47 -40 90q-62 65 -156 65q-106 0 -168 -63q-62 -66 -63 -162h-133q4 83 30 140.5t78 109.5q101 100 262 100q159 0 260 -102q79 -80 79 -171q0 -17 -3 -34q-11 -54 -40 -86.5 t-69 -53.5t-81 -43t-58 -49q76 -18 132 -47.5t108 -81.5q135 -135 135 -323q0 -197 -131 -336q-133 -140 -321 -140q-191 0 -322 136q-133 137 -133 327zM178 -100q0 -143 94 -242q90 -96 228 -96q135 0 225 96q92 99 92 244q0 148 -92 246q-94 94 -236 94q-127 0 -217 -98 q-94 -96 -94 -244z" />
<glyph unicode="h" horiz-adv-x="1024" d="M80 346h143q7 -121 62 -178q38 -38 70 -53t87 -19q20 -2 57 -2q43 0 95 6q48 6 94 41q41 32 41 109q0 65 -36 97t-93.5 42t-148.5 10h-111v140q212 2 238 4q87 7 124 26q62 32 64 107q0 43 -35.5 87t-95.5 52q-12 2 -107 6h-184v148h168q67 3 109 10q55 9 75 18 q71 32 74 109q0 82 -53 108q-22 12 -57 15.5t-142 3.5h-94q-44 -1 -97 -2q-48 0 -72 2q-54 5 -87 22q-44 23 -60 63q-20 54 -20 130q0 11 2 27q148 0 150 2q0 -80 24 -99q29 -24 160 -24h57h162q134 0 200 -52q72 -57 75 -186q0 -90 -39 -148t-138 -83q101 -37 131 -91 q37 -65 37 -124q-2 -71 -50 -124q-52 -56 -124 -85q152 -71 152 -209q0 -132 -70 -205q-46 -47 -137 -70q-63 -16 -238 -16q-169 4 -262 107q-100 104 -100 278z" />
<glyph unicode="i" horiz-adv-x="1143" d="M144 467q0 68 18.5 138.5t58.5 134.5q52 82 150 129q46 23 103 34t122 11q77 0 134 -11t103 -34q98 -47 150 -129q40 -64 58.5 -134.5t18.5 -138.5q0 -114 -40 -221q-38 -106 -111 -165q-67 -55 -158 -81v135q85 50 115 109q23 44 36 102q13 62 13 118q0 139 -73 227 q-72 88 -240 88t-240.5 -88t-72.5 -227q0 -56 13 -118q13 -58 36 -102q30 -59 115 -109v-135q-91 26 -158 81q-73 59 -111 165q-40 107 -40 221z" />
<glyph unicode="j" horiz-adv-x="1165" d="M22 -291h107q0 -71 43 -125q35 -43 104 -43q60 0 94 33q39 38 39 92q0 56 -28 88q-50 55 -119 65l270 394l-485 709h178l397 -582l283 432h-226v143h209h52q86 0 115 -28q30 -29 30 -80q0 -25 -18 -50l-366 -534l389 -571h-180l-296 440l-172 -254q48 -30 71 -73.5 t23 -90.5q0 -101 -80 -174q-62 -61 -182 -61q-113 0 -180 73q-70 72 -72 197z" />
<glyph unicode="k" horiz-adv-x="983" d="M115 -178h143q6 -108 69.5 -174.5t157.5 -66.5q133 0 189 86q55 82 55 336v253q0 86 -32 128q-23 31 -69 53q-39 18 -118 24v-213h-139v660h139v-305q122 -22 169 -39q83 -30 135 -83q58 -61 58 -165v-373q0 -134 -14 -201q-12 -71 -45 -124q-64 -102 -133 -138 q-85 -43 -203 -43q-164 0 -262 107q-100 104 -100 278z" />
<glyph unicode="l" horiz-adv-x="2253" d="M82 197v328q0 174 106 285q94 101 267 106q85 0 151 -24t114 -75q30 -32 54 -75q29 57 76 96q85 71 215 78q107 0 199 -47q88 -47 137 -133q92 98 167.5 133t176.5 35q224 0 326 -135q44 -57 71 -141t27 -185q-1 -114 -26 -195q-28 -88 -64 -131q-38 -44 -96 -78 q-51 -28 -115 -47v138q77 43 119 106q40 60 47 207q0 147 -68 234q-72 94 -207 94q-76 0 -147 -41q-69 -42 -102 -92q-39 -59 -48 -121q-6 -49 -6 -201v-192h-137v192q0 168 -16 262q-12 65 -41 109q-56 86 -189 86q-94 0 -158 -68q-34 -34 -51 -123.5t-18 -263.5l2 -191 l-146 -1v190q0 176 -13 252t-42 119q-58 86 -188 86q-94 0 -158 -68q-68 -68 -68 -178v-332q0 -130 42.5 -237.5t130.5 -200.5q82 -84 120 -107q65 -39 136 -58q65 -17 172 -20h337q348 0 426 48q54 32 107 127h147q-9 -132 -97 -199.5t-217 -87.5q-141 -23 -302 -23h-361 q-115 0 -215 17q-96 16 -189 65q-91 47 -175 139q-69 75 -117.5 162t-72 181t-23.5 196z" />
<glyph unicode="m" horiz-adv-x="1126" d="M111 451q0 198 131 323q135 129 329 129q179 0 308 -123v209q0 27 -8 78.5t-9 56.5q-10 70 -53 115q-43 48 -97.5 66t-129.5 18q-67 0 -130 -25.5t-106 -72.5q-70 -70 -88 -168h-137q21 148 129 262q123 129 325 135q199 0 326 -127q58 -58 87 -140q32 -88 32 -183v-566 q0 -93 -33.5 -174.5t-101.5 -152.5q-130 -136 -322 -136q-188 0 -321 140q-131 139 -131 336zM244 434q0 -145 92 -244q90 -96 225 -96q137 0 227 96q95 99 95 242q0 148 -95 244q-90 98 -217 98q-141 0 -235 -94q-92 -98 -92 -246z" />
<glyph unicode="n" horiz-adv-x="1116" d="M109 438v600q0 115 51 209q51 92 147 150q59 34 129 47q68 12 217 12h355v-141h-404q-183 0 -272 -70q-84 -67 -84 -213v-252q133 127 307 127q193 0 326 -133q135 -137 135 -323q0 -200 -129 -338q-132 -138 -324 -138q-190 0 -321 136q-47 50 -75 99t-43 107t-15 121z M244 432q0 -143 94 -242q90 -96 227 -96q135 0 226 96q92 99 92 244q0 148 -92 246q-95 94 -236 94q-127 0 -217 -98q-94 -96 -94 -244z" />
<glyph unicode="o" horiz-adv-x="1907" d="M136 451q0 198 98 325q103 135 326 135q124 0 219 -41q129 -52 184 -151q55 99 184 151q95 41 219 41q223 0 326 -135q98 -127 98 -325q-1 -147 -44 -241t-107 -139.5t-150 -70.5v137q89 51 123 103q36 54 43 211q0 147 -68 233q-71 92 -235 92q-99 0 -164 -39 q-70 -43 -102 -92.5t-42 -121.5q-10 -70 -10 -199h-142q0 129 -10 199q-10 72 -42 121.5t-102 92.5q-65 39 -164 39q-164 0 -235 -92q-68 -86 -68 -233q7 -157 43 -211q34 -52 123 -103v-137q-86 25 -150 70.5t-107 139.5t-44 241z" />
<glyph unicode="p" horiz-adv-x="1004" d="M80 346h143q3 -54 18.5 -100t43.5 -80q54 -64 157 -70q23 -1 63 -1q57 0 87 5q50 8 104 43q24 15 38 56.5t14 93.5q0 57 -23 104t-70 66q-76 31 -221 31h-94v139q53 1 121 2h117q140 4 176 98q12 31 12 94q-1 73 -40.5 120.5t-103 76.5t-190.5 72q-100 34 -160 68 q-68 37 -104 83q-37 47 -55 94t-23 114h154q0 -64 14 -91q20 -38 59.5 -60.5t68.5 -38.5q42 -25 228 -89q147 -50 226 -129q39 -39 55 -95q19 -65 19 -122q0 -58 -19 -121q-20 -67 -72 -110q-28 -23 -88 -46q77 -34 114.5 -104t37.5 -154q0 -169 -96 -258q-47 -44 -111 -60 q-70 -18 -168 -18q-129 0 -201.5 24.5t-130.5 84.5q-100 103 -100 278z" />
<glyph unicode="q" horiz-adv-x="915" d="M27 -178h143q6 -108 69.5 -174.5t157.5 -66.5q133 0 189 86q55 82 55 336v768h-125q-138 0 -168 -28q-31 -27 -31 -107h-131v31q0 133 76 188q69 52 275 52h104v549h143v-1513q0 -126 -14 -201q-12 -71 -45 -124q-49 -87 -137 -134q-90 -47 -199 -47q-164 0 -262 107 q-100 104 -100 278z" />
<glyph unicode="r" horiz-adv-x="1907" d="M141 451v249q0 312 219 537q88 88 181 136q88 46 229 67q79 12 266 12q39 0 72 1h94q51 0 79 -1q147 -4 254 -29t178 -90t81 -186h-147q-52 90 -107 125q-79 51 -379 51h-262q-85 0 -166 -20.5t-147.5 -61.5t-122.5 -104q-51 -58 -103 -149t-57 -163q128 82 254 82 q138 0 223 -37q131 -52 183 -151q55 99 184 151q95 41 219 41q223 0 326 -135q98 -127 98 -325q-1 -147 -44 -241t-107 -139.5t-150 -70.5v137q89 51 123 103q36 54 43 211q0 147 -68 233q-71 92 -235 92q-99 0 -164 -39q-70 -43 -102 -92.5t-42 -122t-10 -198.5h-141 q0 126 -10 199t-42.5 122.5t-101.5 91.5q-65 39 -164 39q-163 0 -235 -92q-68 -85 -68 -233q8 -152 43 -211q29 -49 123 -103v-137q-87 25 -152 71t-107 139q-19 43 -28.5 105t-9.5 136z" />
<glyph unicode="s" horiz-adv-x="1116" d="M109 438v1018h141v-1026q0 -70 21 -133q18 -55 70 -102t114.5 -74t109.5 -27q135 0 226 96q92 100 92 244q0 43 -25 97q-25 55 -50.5 109t-25.5 97q0 40 30 84q32 47 71 80h139q-54 -61 -77 -93q-27 -40 -27 -69q0 -21 22 -71q24 -52 35 -76q17 -35 29 -77t12 -64 q0 -199 -131 -336q-133 -140 -322 -140q-193 0 -330 129q-62 61 -93 147.5t-31 186.5z" />
<glyph unicode="t" horiz-adv-x="1241" d="M53 17q0 242 166 414q105 108 234 147v-141q-71 -35 -131 -99q-121 -129 -121 -319q0 -191 121 -318q120 -129 301 -129q178 0 297 129q120 127 120 320q0 195 -120 321q-94 97 -238 119v-213h-139v660h139v-310q196 -21 338 -163q168 -170 168 -404q0 -246 -164 -420 q-166 -174 -401 -174q-238 0 -404 170t-166 410z" />
<glyph unicode="u" horiz-adv-x="1126" d="M23 773v133h71q122 0 203 -103q33 -43 53 -94q26 64 53 94q47 55 100.5 81t127.5 28q99 0 170 -37q85 -43 137 -139q24 -45 37 -125q8 -45 11 -88t3 -113v-459q0 -72 -3.5 -121t-10.5 -80q-12 -71 -45 -124q-59 -93 -137 -134q-91 -47 -199 -47q-164 0 -262 107 q-101 104 -101 278h144q6 -108 69 -174q64 -67 158 -67q133 0 189 86q55 83 55 336v340q0 253 -55 336q-57 88 -152 88q-41 0 -86 -17q-39 -14 -72 -51q-29 -33 -41.5 -71.5t-19.5 -100.5h-144q-5 92 -65 172q-19 28 -51 47t-62 19h-75z" />
<glyph unicode="v" horiz-adv-x="942" d="M68 -178h143q6 -108 69.5 -174.5t157.5 -66.5q75 0 127 18.5t87.5 62.5t49.5 105q7 34 7 131q-1 81 -10 132q-7 41 -44 88q-37 48 -107 67q-73 19 -179 19h-68v118q6 -3 25 -3q11 0 19.5 0.5t19.5 0.5q143 0 217 60q71 59 71 178q0 102 -61.5 167.5t-155.5 65.5 q-106 0 -168 -63q-61 -66 -63 -182h-133q8 170 108 270q101 100 262 100t260 -102t99 -256q0 -98 -33 -152q-45 -72 -109 -118q106 -45 144 -119q51 -102 51 -250q0 -162 -61 -290q-43 -91 -158 -149q-82 -41 -205 -41q-167 0 -262 105q-100 104 -100 278z" />
<glyph unicode="w" horiz-adv-x="1116" d="M109 438v600q0 115 51 209q51 92 147 150q75 43 133 45q123 0 203 -105q33 -43 53 -94q21 51 54 94q81 103 202 103h72v-133h-76q-30 0 -61.5 -19.5t-50.5 -46.5q-62 -86 -66 -172h-143q-5 84 -70 172q-19 28 -51 47t-62 19q-61 0 -118 -62q-37 -38 -57.5 -91t-20.5 -122 v-252q133 127 307 127q193 0 326 -133q135 -137 135 -323q0 -197 -131 -336q-133 -140 -322 -140q-190 0 -321 136q-47 50 -75 99t-43 107t-15 121zM244 432q0 -143 94 -242q90 -96 227 -96q135 0 226 96q92 99 92 244q0 148 -92 246q-95 94 -236 94q-127 0 -217 -98 q-94 -96 -94 -244z" />
<glyph unicode="x" horiz-adv-x="1116" d="M109 438v1018h139v-676q133 127 307 127q193 0 326 -133q135 -137 135 -323q0 -197 -131 -336q-133 -140 -322 -140q-190 0 -321 136q-133 137 -133 327zM244 432q0 -143 94 -242q90 -96 227 -96q135 0 226 96q92 99 92 244q0 148 -92 246q-95 94 -236 94 q-127 0 -217 -98q-94 -96 -94 -244z" />
<glyph unicode="y" horiz-adv-x="932" d="M68 468q0 58 13 125.5t39 145t66 169.5l140 -2q-51 -142 -82 -249.5t-31 -178.5q0 -47 16 -63q50 -50 140 -50q92 7 153 41q74 37 117 111q30 52 41 102q11 49 11 174q0 82 -1 111h144v-961q0 -129 -15 -201q-12 -71 -45 -124q-49 -87 -137 -134q-90 -47 -199 -47 q-164 0 -262 107q-100 104 -100 278h143q6 -108 69.5 -174.5t157.5 -66.5q134 0 189 86q55 82 55 336v379q-65 -78 -147 -113q-75 -32 -178 -35q-98 0 -163 26t-100 73q-34 45 -34 135z" />
<glyph unicode="z" horiz-adv-x="1434" d="M-6 1100q0 149 82 254q84 104 205 104q118 0 202 -104.5t84 -253.5v-320q133 127 307 127q193 0 326 -133q135 -137 135 -323q0 -197 -131 -336q-133 -140 -321 -140q-191 0 -322 136q-94 100 -115 192q-18 79 -18 135v353q-66 -50 -147 -50q-123 0 -205 105t-82 254z M115 1100q0 -44 14.5 -92.5t34.5 -77.5q44 -62 112 -62q72 3 117 70q41 61 41 162q0 89 -51 162q-44 63 -107 63q-65 0 -116 -68q-21 -29 -33 -73t-12 -84zM563 432q0 -143 94 -242q90 -96 228 -96q135 0 225 96q92 99 92 244q0 148 -92 246q-98 98 -236 98 q-121 0 -217 -102q-94 -96 -94 -244z" />
<glyph unicode="{" horiz-adv-x="1024" d="M174 477v109h25q14 -2 20 -2q137 0 195 63q57 64 57 217v242q0 223 69.5 297t266.5 74h47v-107h-37q-131 0 -176 -49q-47 -49 -47 -205v-242q0 -167 -43 -239q-43 -74 -154 -105q111 -30 154 -104q43 -72 43 -240v-241q0 -156 45 -203q45 -51 170 -51q6 0 22 2h23v-107 h-47q-197 0 -266 72q-70 74 -70 297v244q0 153 -57.5 216.5t-194.5 63.5q-6 0 -20 -2h-25z" />
<glyph unicode="|" horiz-adv-x="1024" d="M459 -483v2048h108v-2048h-108z" />
<glyph unicode="}" horiz-adv-x="1024" d="M172 -307h39q131 0 176 49t45 203v241q0 170 43 242t154 102q-111 31 -154 103t-43 241v242q0 158 -45 207t-170 49q-6 0 -22 -2h-23v107h47q197 0 266 -74q70 -74 70 -297v-242q0 -153 57 -217q58 -63 195 -63q6 0 22 2h23v-109h-23q-16 2 -22 2q-137 0 -195 -63 q-57 -64 -57 -217v-244q0 -223 -70 -297q-69 -72 -266 -72h-47v107z" />
<glyph unicode="~" horiz-adv-x="692" d="M25 1028l153 428h144l-156 -428h-141zM317 1028l156 428h141l-153 -428h-144z" />
<glyph unicode="&#xad;" horiz-adv-x="659" d="M94 483v133h469v-133h-469z" />
<glyph unicode="&#xe3;" horiz-adv-x="0" />
<glyph unicode="&#xec;" horiz-adv-x="0" />
<glyph unicode="&#xed;" horiz-adv-x="0" />
<glyph unicode="&#xf3;" horiz-adv-x="0" />
<glyph unicode="&#xf8;" horiz-adv-x="0" />
<glyph unicode="&#xf9;" horiz-adv-x="0" />
<glyph unicode="&#x2000;" horiz-adv-x="828" />
<glyph unicode="&#x2001;" horiz-adv-x="1657" />
<glyph unicode="&#x2002;" horiz-adv-x="828" />
<glyph unicode="&#x2003;" horiz-adv-x="1657" />
<glyph unicode="&#x2004;" horiz-adv-x="552" />
<glyph unicode="&#x2005;" horiz-adv-x="414" />
<glyph unicode="&#x2006;" horiz-adv-x="276" />
<glyph unicode="&#x2007;" horiz-adv-x="276" />
<glyph unicode="&#x2008;" horiz-adv-x="207" />
<glyph unicode="&#x2009;" horiz-adv-x="331" />
<glyph unicode="&#x200a;" horiz-adv-x="92" />
<glyph unicode="&#x2010;" horiz-adv-x="659" d="M94 483v133h469v-133h-469z" />
<glyph unicode="&#x2011;" horiz-adv-x="659" d="M94 483v133h469v-133h-469z" />
<glyph unicode="&#x2012;" horiz-adv-x="659" d="M94 483v133h469v-133h-469z" />
<glyph unicode="&#x2013;" horiz-adv-x="1214" d="M94 483v133h1024v-133h-1024z" />
<glyph unicode="&#x2014;" horiz-adv-x="2238" d="M94 483v133h2048v-133h-2048z" />
<glyph unicode="&#x202f;" horiz-adv-x="331" />
<glyph unicode="&#x205f;" horiz-adv-x="414" />
<glyph unicode="&#x25fc;" horiz-adv-x="1455" d="M0 0v1455h1455v-1455h-1455z" />
</font>
</defs>
</svg>
